<?xml version="1.0" encoding="UTF-8"?>
<svg width="189px" height="32px" viewBox="0 0 189 32" version="1.1" xmlns="http://www.w3.org/2000/svg" xmlns:xlink="http://www.w3.org/1999/xlink">
    <!-- Generator: Sketch 55.2 (78181) - https://sketchapp.com -->
    <title>Group</title>
    <desc>Created with Sketch.</desc>
    <g id="Page-1" stroke="none" stroke-width="1" fill="none" fill-rule="evenodd">
        <g id="Artboard" fill-rule="nonzero">
            <g id="Group" transform="translate(-0.236328, -0.269531)">
                <path d="M169.125977,25.1171875 L158.338867,25.1171875 L156.288086,31.2695312 L149.746094,31.2695312 L160.861328,1.41015625 L166.5625,1.41015625 L177.739258,31.2695312 L171.197266,31.2695312 L169.125977,25.1171875 Z M160,20.1337891 L167.464844,20.1337891 L163.711914,8.95703125 L160,20.1337891 Z M189.070312,31.2695312 L182.917969,31.2695312 L182.917969,1.41015625 L189.070312,1.41015625 L189.070312,31.2695312 Z" id="AI" fill="#008DCD"></path>
                <path d="M25.3427734,21.3232422 C25.1103504,24.5361489 23.9243271,27.0654205 21.784668,28.9111328 C19.6450088,30.7568452 16.8252128,31.6796875 13.3251953,31.6796875 C9.49705117,31.6796875 6.48585082,30.3911262 4.29150391,27.8139648 C2.097157,25.2368035 1,21.6992412 1,17.2011719 L1,15.3759766 C1,12.5048685 1.50585432,9.97559688 2.51757812,7.78808594 C3.52930193,5.600575 4.97508826,3.92236913 6.85498047,2.75341797 C8.73487268,1.58446681 10.9189329,1 13.4072266,1 C16.8525563,1 19.6279192,1.92284233 21.7333984,3.76855469 C23.8388777,5.61426704 25.0556624,8.20506145 25.3837891,11.5410156 L19.2314453,11.5410156 C19.0810539,9.61327161 18.5444382,8.21533637 17.621582,7.34716797 C16.6987259,6.47899957 15.2939547,6.04492188 13.4072266,6.04492188 C11.3564351,6.04492188 9.82178244,6.77977781 8.80322266,8.24951172 C7.78466288,9.71924563 7.26171889,11.999008 7.234375,15.0888672 L7.234375,17.3447266 C7.234375,20.5713052 7.72313964,22.92968 8.70068359,24.4199219 C9.67822754,25.9101637 11.219716,26.6552734 13.3251953,26.6552734 C15.2255954,26.6552734 16.6440383,26.2211957 17.5805664,25.3530273 C18.5170945,24.4848589 19.0537103,23.1416107 19.1904297,21.3232422 L25.3427734,21.3232422 Z M37.5351562,26.3271484 L50.5986328,26.3271484 L50.5986328,31.2695312 L31.3828125,31.2695312 L31.3828125,1.41015625 L37.5351562,1.41015625 L37.5351562,26.3271484 Z M73.3730469,25.1171875 L62.5859375,25.1171875 L60.5351562,31.2695312 L53.9931641,31.2695312 L65.1083984,1.41015625 L70.8095703,1.41015625 L81.9863281,31.2695312 L75.4443359,31.2695312 L73.3730469,25.1171875 Z M64.2470703,20.1337891 L71.7119141,20.1337891 L67.9589844,8.95703125 L64.2470703,20.1337891 Z M93.3173828,31.2695312 L87.1650391,31.2695312 L87.1650391,1.41015625 L93.3173828,1.41015625 L93.3173828,31.2695312 Z M109.057617,1.41015625 L116.727539,23.0664062 L124.356445,1.41015625 L132.436523,1.41015625 L132.436523,31.2695312 L126.263672,31.2695312 L126.263672,23.1074219 L126.878906,9.01855469 L118.819336,31.2695312 L114.594727,31.2695312 L106.555664,9.0390625 L107.170898,23.1074219 L107.170898,31.2695312 L101.018555,31.2695312 L101.018555,1.41015625 L109.057617,1.41015625 Z" id="CLAIM" fill="#000000"></path>
            </g>
        </g>
    </g>
</svg>